# xmcd
#
# Track frame offsets: 
#        150
#        6942
#        24182
#        43582
#        66565
#        87790
#        104979
#        112000
#        132947
#        158820
#        178030
#        189400
#
# Disc length: 2800 seconds
#
# Revision: 0
# Processed by: cddbd v1.5.2PL0 Copyright (c) Steve Scherf et al.
# Submitted via: ExactAudioCopy v1.3
#
DISCID=a20aee0c
DTITLE=Faze - Love Affairs
DYEAR=1995
DGENRE=R&B
TTITLE0=Interlude
TTITLE1=Keep It Goin
TTITLE2=How Can I Be Down
TTITLE3=Love Affairs
TTITLE4=I Do
TTITLE5=My Love
TTITLE6=Interlude 2
TTITLE7=Where's The Love
TTITLE8=Tear Drops
TTITLE9=Oh No
TTITLE10=Our Father
TTITLE11=All Of My Love
EXTD=
EXTT0=
EXTT1=
EXTT2=
EXTT3=
EXTT4=
EXTT5=
EXTT6=
EXTT7=
EXTT8=
EXTT9=
EXTT10=
EXTT11=
PLAYORDER=
